<svg viewBox="0 0 48 48" xmlns="http://www.w3.org/2000/svg" fill="none">
  <defs>
    <linearGradient id="lbm-bg" x1="0" y1="0" x2="48" y2="48">
      <stop stop-color="#8B5CF6" />
      <stop offset="0.55" stop-color="#7C3AED" />
      <stop offset="1" stop-color="#22D3EE" />
    </linearGradient>
  </defs>
  <rect width="48" height="48" rx="13" fill="url(#lbm-bg)" />
  <g transform="translate(9.5 11) scale(1.1)" stroke="#ffffff" stroke-width="2" stroke-linecap="round" stroke-linejoin="round">
    <path d="M19 17h2c.55 0 1-.45 1-1v-3c0-.9-.7-1.7-1.5-1.9C18.7 10.6 16 10 16 10s-1.3-1.4-2.2-2.3c-.5-.45-1.1-.7-1.8-.7H5c-.6 0-1.15.35-1.4.9L2.2 10.8A3.6 3.6 0 0 0 2 12v4c0 .55.45 1 1 1h2" />
    <circle cx="7" cy="17" r="2" fill="#ffffff" stroke="none" />
    <circle cx="17" cy="17" r="2" fill="#ffffff" stroke="none" />
  </g>
  <path d="M35 12.5l.9 2.1 2.1.9-2.1.9-.9 2.1-.9-2.1-2.1-.9 2.1-.9z" fill="#ffffff" />
</svg>
