<svg viewBox="0 0 48 48" xmlns="http://www.w3.org/2000/svg" fill="none">
  <rect width="48" height="48" rx="10" fill="#141414" />
  <g transform="translate(9.5 12) scale(1.1)" stroke="#FAFAFA" stroke-width="2" stroke-linecap="round" stroke-linejoin="round">
    <path d="M19 17h2c.55 0 1-.45 1-1v-3c0-.9-.7-1.7-1.5-1.9C18.7 10.6 16 10 16 10s-1.3-1.4-2.2-2.3c-.5-.45-1.1-.7-1.8-.7H5c-.6 0-1.15.35-1.4.9L2.2 10.8A3.6 3.6 0 0 0 2 12v4c0 .55.45 1 1 1h2" />
    <circle cx="7" cy="17" r="2" fill="#FAFAFA" stroke="none" />
    <circle cx="17" cy="17" r="2" fill="#FAFAFA" stroke="none" />
  </g>
  <circle cx="37" cy="12" r="3" fill="#0E7490" />
</svg>
